<?xml version="1.0" encoding="UTF-8" standalone="no"?>
<!-- Created with Inkscape (http://www.inkscape.org/) -->

<svg
   width="33.866665mm"
   height="33.866665mm"
   viewBox="0 0 33.866665 33.866665"
   version="1.1"
   id="svg1"
   inkscape:version="1.4.2 (f4327f4, 2025-05-13)"
   sodipodi:docname="Projetos Gráficos.svg"
   xml:space="preserve"
   xmlns:inkscape="http://www.inkscape.org/namespaces/inkscape"
   xmlns:sodipodi="http://sodipodi.sourceforge.net/DTD/sodipodi-0.dtd"
   xmlns="http://www.w3.org/2000/svg"
   xmlns:svg="http://www.w3.org/2000/svg"><sodipodi:namedview
     id="namedview1"
     pagecolor="#ffffff"
     bordercolor="#000000"
     borderopacity="0.25"
     inkscape:showpageshadow="2"
     inkscape:pageopacity="0.0"
     inkscape:pagecheckerboard="0"
     inkscape:deskcolor="#d1d1d1"
     inkscape:document-units="px"
     inkscape:zoom="2.6053829"
     inkscape:cx="46.82613"
     inkscape:cy="80.794265"
     inkscape:window-width="1366"
     inkscape:window-height="697"
     inkscape:window-x="-8"
     inkscape:window-y="-8"
     inkscape:window-maximized="1"
     inkscape:current-layer="layer1"><inkscape:page
       x="0"
       y="0"
       width="33.866665"
       height="33.866665"
       id="page2"
       margin="0"
       bleed="0" /></sodipodi:namedview><defs
     id="defs1" /><g
     inkscape:label="Camada 1"
     inkscape:groupmode="layer"
     id="layer1"
     transform="translate(-52.925538,-77.627664)"><rect
       style="fill:#f6f4f0;fill-opacity:1;stroke:none;stroke-width:1"
       id="rect2"
       width="33.866665"
       height="33.866665"
       x="52.925541"
       y="77.62767"
       rx="16.933332"
       ry="16.933332" /><path
       style="fill:#ec1b39;fill-opacity:1;stroke-width:0.650893"
       d="m 56.695899,102.79607 c 0.0039,-0.0106 0.18182,-1.00938 0.395379,-2.21967 l 0.388283,-2.200524 h 9.464916 9.464925 l -0.0079,0.03443 c -0.0043,0.01894 -0.176703,1.002289 -0.383132,2.185224 -0.20643,1.18293 -0.37884,2.16628 -0.383133,2.18523 l -0.0079,0.0344 H 66.15816 c -7.569068,0 -9.467937,-0.005 -9.462261,-0.0191 z m 5.605163,-6.651645 c 0.0046,-0.02315 0.177731,-1.003058 0.384358,-2.177567 0.206619,-1.174509 0.379691,-2.157858 0.384593,-2.185221 l 0.0089,-0.04976 h 9.971481 c 5.484313,0 9.97148,0.0026 9.97148,0.0059 0,0.0033 -0.17566,1.002676 -0.390356,2.221014 -0.214695,1.218339 -0.390355,2.217998 -0.390355,2.221464 0,0.0035 -4.48848,0.0063 -9.974398,0.0063 H 62.29239 Z m -3.251119,-6.636031 c 2.34e-4,-0.01895 0.174478,-1.019516 0.387203,-2.223491 l 0.38678,-2.189049 9.465216,-0.0038 9.465216,-0.0038 -0.0089,0.04976 c -0.0049,0.02738 -0.177995,1.010727 -0.384697,2.185235 -0.206703,1.174508 -0.379686,2.154414 -0.384404,2.177568 l -0.0086,0.0421 h -9.459102 -9.45915 z"
       id="path2"
       sodipodi:nodetypes="ccccccsscsccccccssssscccccccssscccc" /></g></svg>
