<?xml version="1.0" encoding="UTF-8" standalone="no"?>
<!-- Created with Inkscape (http://www.inkscape.org/) -->

<svg
   width="33.072918mm"
   height="33.072918mm"
   viewBox="0 0 33.072918 33.072918"
   version="1.1"
   id="svg1"
   inkscape:version="1.4.2 (f4327f4, 2025-05-13)"
   sodipodi:docname="Projetos Gráficos.svg"
   xml:space="preserve"
   inkscape:export-filename="Favicon.svg"
   inkscape:export-xdpi="96"
   inkscape:export-ydpi="96"
   xmlns:inkscape="http://www.inkscape.org/namespaces/inkscape"
   xmlns:sodipodi="http://sodipodi.sourceforge.net/DTD/sodipodi-0.dtd"
   xmlns="http://www.w3.org/2000/svg"
   xmlns:svg="http://www.w3.org/2000/svg"><sodipodi:namedview
     id="namedview1"
     pagecolor="#ffffff"
     bordercolor="#000000"
     borderopacity="0.25"
     inkscape:showpageshadow="2"
     inkscape:pageopacity="0.0"
     inkscape:pagecheckerboard="0"
     inkscape:deskcolor="#d1d1d1"
     inkscape:document-units="px"
     inkscape:zoom="1.8422839"
     inkscape:cx="39.624728"
     inkscape:cy="85.491707"
     inkscape:window-width="1366"
     inkscape:window-height="697"
     inkscape:window-x="-8"
     inkscape:window-y="-8"
     inkscape:window-maximized="1"
     inkscape:current-layer="layer1"><inkscape:page
       x="0"
       y="0"
       width="33.072918"
       height="33.072918"
       id="page2"
       margin="0"
       bleed="0" /></sodipodi:namedview><defs
     id="defs1" /><g
     inkscape:label="Camada 1"
     inkscape:groupmode="layer"
     id="layer1"
     transform="translate(-118.81174,-77.415245)"><rect
       style="fill:none;fill-opacity:1;stroke:none;stroke-width:1.17493"
       id="rect5"
       width="33.072918"
       height="33.072918"
       x="118.81174"
       y="77.415245" /><path
       style="fill:#f6f4f0;fill-opacity:1;stroke-width:0.650893"
       d="m 122.18526,102.79607 c 0.004,-0.0106 0.18182,-1.00938 0.39538,-2.21967 l 0.38828,-2.200524 h 9.46492 9.46492 l -0.008,0.03443 c -0.004,0.01894 -0.1767,1.002289 -0.38313,2.185224 -0.20643,1.18293 -0.37884,2.16628 -0.38313,2.18523 l -0.008,0.0344 h -9.46918 c -7.56907,0 -9.46793,-0.005 -9.46226,-0.0191 z m 5.60516,-6.651645 c 0.005,-0.02315 0.17774,-1.003058 0.38436,-2.177567 0.20662,-1.174509 0.37969,-2.157858 0.3846,-2.185221 l 0.009,-0.04976 h 9.97148 c 5.48431,0 9.97148,0.0026 9.97148,0.0059 0,0.0033 -0.17566,1.002676 -0.39036,2.221014 -0.21469,1.218339 -0.39035,2.217998 -0.39035,2.221464 0,0.0035 -4.48848,0.0063 -9.9744,0.0063 h -9.97438 z m -3.25111,-6.636031 c 2.3e-4,-0.01895 0.17447,-1.019516 0.3872,-2.223491 l 0.38678,-2.189049 9.46521,-0.0038 9.46522,-0.0038 -0.009,0.04976 c -0.005,0.02738 -0.17799,1.010727 -0.3847,2.185235 -0.2067,1.174508 -0.37968,2.154414 -0.3844,2.177568 l -0.009,0.0421 h -9.4591 -9.45915 z"
       id="path5"
       sodipodi:nodetypes="ccccccsscsccccccssssscccccccssscccc" /></g></svg>
