<?xml version="1.0" encoding="UTF-8" standalone="no"?>
<!-- Created with Inkscape (http://www.inkscape.org/) -->

<svg
   width="135.46667mm"
   height="135.46667mm"
   viewBox="0 0 135.46668 135.46668"
   version="1.1"
   id="svg1"
   inkscape:version="1.4.2 (f4327f4, 2025-05-13)"
   sodipodi:docname="Projetos Gráficos.svg"
   xml:space="preserve"
   inkscape:export-filename="Favicon.svg"
   inkscape:export-xdpi="96"
   inkscape:export-ydpi="96"
   xmlns:inkscape="http://www.inkscape.org/namespaces/inkscape"
   xmlns:sodipodi="http://sodipodi.sourceforge.net/DTD/sodipodi-0.dtd"
   xmlns="http://www.w3.org/2000/svg"
   xmlns:svg="http://www.w3.org/2000/svg"><sodipodi:namedview
     id="namedview1"
     pagecolor="#ffffff"
     bordercolor="#000000"
     borderopacity="0.25"
     inkscape:showpageshadow="2"
     inkscape:pageopacity="0.0"
     inkscape:pagecheckerboard="0"
     inkscape:deskcolor="#d1d1d1"
     inkscape:document-units="px"
     inkscape:zoom="0.92114197"
     inkscape:cx="143.84319"
     inkscape:cy="55.908862"
     inkscape:window-width="1366"
     inkscape:window-height="697"
     inkscape:window-x="-8"
     inkscape:window-y="-8"
     inkscape:window-maximized="1"
     inkscape:current-layer="layer1"
     showguides="true"><inkscape:page
       x="0"
       y="0"
       width="135.46667"
       height="135.46667"
       id="page2"
       margin="0"
       bleed="0" /></sodipodi:namedview><defs
     id="defs1" /><g
     inkscape:label="Camada 1"
     inkscape:groupmode="layer"
     id="layer1"
     transform="translate(-243.84438,-77.62767)"><rect
       style="fill:#f6f4f0;fill-opacity:1;stroke:none;stroke-width:4"
       id="rect1"
       width="135.46667"
       height="135.46667"
       x="243.84438"
       y="77.62767"
       rx="24.268839"
       ry="24.268839"
       inkscape:export-filename="..\Guia Telecom\static\LogoIcon.svg"
       inkscape:export-xdpi="96"
       inkscape:export-ydpi="96" /><path
       style="fill:#ec1b39;fill-opacity:1;stroke-width:2.65953"
       d="m 257.79441,181.49967 c 0.0163,-0.0433 0.74291,-4.1243 1.61551,-9.0695 l 1.5865,-8.99129 h 38.67334 38.67339 l -0.0327,0.14056 c -0.0163,0.0772 -0.72203,4.09532 -1.5655,8.92877 -0.84346,4.83341 -1.54792,8.85135 -1.56545,8.92878 l -0.0327,0.14056 h -38.69075 c -30.92693,0 -38.68565,-0.0204 -38.66248,-0.078 z m 22.90254,-27.17842 c 0.0204,-0.0944 0.72619,-4.09843 1.57044,-8.89744 0.84424,-4.79901 1.5514,-8.81694 1.57146,-8.92873 l 0.0368,-0.20349 h 40.74314 c 22.4087,0 40.74313,0.0123 40.74313,0.0245 0,0.0123 -0.71774,4.09688 -1.595,9.07497 -0.87722,4.9781 -1.59496,9.06268 -1.59496,9.07681 0,0.0163 -18.33978,0.0245 -40.75506,0.0245 h -40.75498 z m -13.28397,-27.1146 c 9.4e-4,-0.0772 0.71288,-4.16568 1.58208,-9.0851 l 1.58037,-8.94439 38.67458,-0.0163 38.67453,-0.0164 -0.0368,0.20349 c -0.0204,0.11195 -0.72726,4.1298 -1.57187,8.92881 -0.84457,4.79901 -1.55136,8.80285 -1.57065,8.89748 l -0.0368,0.17202 h -38.64956 -38.64977 z"
       id="path6"
       sodipodi:nodetypes="ccccccsscsccccccssssscccccccssscccc" /></g></svg>
